#!OML:ASF F:\VICON\USERDATA\INSTALL\rory3\rory3.ASF
:FULLY-SPECIFIED
:DEGREES
391
root -7.20091 18.0916 -15.5758 9.40557 -35.932 3.66882
lowerback -8.36344 -1.64502 -2.72836
upperback -1.94592 -1.9761 0.106901
thorax 2.76602 -1.00948 1.43199
lowerneck -17.229 -2.67778 0.831722
upperneck 22.9964 -3.52792 -2.23542
head 10.1189 -1.85971 -1.41497
rclavicle -1.02784e-013 -3.57812e-015
rhumerus -28.8367 4.47685 -76.9829
rradius 22.3642
rwrist 9.80327
rhand -20.6168 9.19614
rfingers 7.12502
rthumb 5.74437 -20.706
lclavicle -1.02784e-013 -3.57812e-015
lhumerus -39.443 -9.84337 81.8881
lradius 34.3378
lwrist 14.1632
lhand -11.0975 26.962
lfingers 7.12502
lthumb 14.9265 56.4041
rfemur -20.2662 -17.903 21.3759
rtibia 37.0719
rfoot -26.215 -11.2456
rtoes -19.0948
lfemur -20.764 22.189 -24.8452
ltibia 40.0921
lfoot -26.2894 5.84078
ltoes -2.03513
392
root -7.19025 18.0936 -15.5706 9.59652 -34.783 3.47583
lowerback -8.42433 -1.66689 -2.58265
upperback -2.05933 -2.01787 0.103366
thorax 2.67931 -1.02761 1.34233
lowerneck -17.1263 -2.94722 0.537048
upperneck 22.9084 -3.89461 -1.94188
head 10.0748 -2.01879 -1.30806
rclavicle 3.12713e-014 -1.86858e-014
rhumerus -29.0352 4.47768 -77.088
rradius 22.57
rwrist 8.75941
rhand -20.817 9.87813
rfingers 7.12502
rthumb 5.55105 -20.0292
lclavicle 3.12713e-014 -1.86858e-014
lhumerus -39.5581 -9.22884 81.7878
lradius 34.2921
lwrist 13.3683
lhand -10.7852 27.07
lfingers 7.12502
lthumb 15.2274 56.4896
rfemur -20.4172 -18.2651 21.5676
rtibia 37.3789
rfoot -25.9323 -11.7188
rtoes -19.9593
lfemur -20.6117 22.0375 -24.759
ltibia 39.6959
lfoot -26.0047 6.15636
ltoes -3.86822
393
root -7.16993 18.0937 -15.567 9.79908 -33.7085 3.36569
lowerback -8.53899 -1.66886 -2.45648
upperback -2.13155 -2.02889 0.0914818
thorax 2.66394 -1.0317 1.25614
lowerneck -17.1639 -3.20709 0.180506
upperneck 22.8181 -4.23518 -1.62337
head 10.0614 -2.16754 -1.18188
rclavicle -1.41013e-014 6.95746e-015
rhumerus -29.1296 5.19293 -77.455
rradius 22.7977
rwrist 6.54124
rhand -21.2464 10.6513
rfingers 7.12502
rthumb 5.13642 -19.2664
lclavicle -1.41013e-014 6.95746e-015
lhumerus -39.5984 -9.46998 82.1233
lradius 34.144
lwrist 13.5459
lhand -10.6689 27.3323
lfingers 7.12502
lthumb 15.3395 56.7433
rfemur -20.6946 -18.674 21.6973
rtibia 37.7078
rfoot -25.56 -12.1912
rtoes -21.0175
lfemur -20.5504 21.8048 -24.8028
ltibia 39.2807
lfoot -25.7776 6.25265
ltoes -4.86506
394
root -7.15678 18.0945 -15.5641 10.0339 -32.5789 3.17674
lowerback -8.70941 -1.70207 -2.34524
upperback -2.18852 -2.07902 0.0959432
thorax 2.69778 -1.05596 1.18895
lowerneck -17.176 -3.42489 -0.0255376
upperneck 22.7007 -4.5372 -1.38926
head 10.03 -2.29583 -1.10425
rclavicle 7.7936e-014 1.49089e-014
rhumerus -29.2556 5.75697 -77.7298
rradius 23.1632
rwrist 4.98827
rhand -21.6593 10.4013
rfingers 7.12502
rthumb 4.73772 -19.5257
lclavicle 7.7936e-014 1.49089e-014
lhumerus -39.7102 -9.77334 82.4504
lradius 33.9849
lwrist 14.0075
lhand -10.7309 26.8395
lfingers 7.12502
lthumb 15.2797 56.2551
rfemur -20.9299 -18.958 21.9122
rtibia 38.0358
rfoot -25.2845 -12.662
rtoes -21.4873
lfemur -20.4781 21.4701 -24.7141
ltibia 38.8322
lfoot -25.4563 6.07511
ltoes -4.58087
395
root -7.14527 18.0966 -15.5542 10.0101 -31.5062 3.19351
lowerback -8.80605 -1.69885 -2.35179
upperback -2.2018 -2.06862 0.00957615
thorax 2.73418 -1.05078 1.10201
lowerneck -17.1856 -3.64933 -0.117838
upperneck 22.6303 -4.86184 -1.23276
head 10.0107 -2.43409 -1.07661
rclavicle -5.6927e-014 6.75868e-015
rhumerus -29.4104 5.90713 -77.7967
rradius 23.5713
rwrist 4.27355
rhand -21.9561 9.79827
rfingers 7.12502
rthumb 4.45117 -20.135
lclavicle -5.6927e-014 6.75868e-015
lhumerus -39.9461 -9.53955 82.5129
lradius 34.193
lwrist 13.9114
lhand -10.574 26.5537
lfingers 7.12502
lthumb 15.4309 55.9578
rfemur -20.9714 -19.3334 21.842
rtibia 38.3652
rfoot -25.0872 -12.8882
rtoes -21.6965
lfemur -20.1646 21.1136 -24.7557
ltibia 38.2916
lfoot -25.2213 5.71192
ltoes -3.88086
